<?xml version="1.0" encoding="utf-8"?>
<!-- Generator: Adobe Illustrator 19.0.0, SVG Export Plug-In . SVG Version: 6.00 Build 0)  -->
<svg version="1.1" id="Layer_1" xmlns="http://www.w3.org/2000/svg" xmlns:xlink="http://www.w3.org/1999/xlink" x="0px" y="0px"
	 viewBox="-32 33 35 35" style="enable-background:new -32 33 35 35;" xml:space="preserve">
<style type="text/css">
	.st0{fill:#FFFFFF;}
</style>
<g>
	<path class="st0" d="M-14.6,34.3c-8.9,0-16.1,7.2-16.1,16.1c0,8.8,7.1,16.2,16.1,16.2c8.9,0,16.2-7.3,16.2-16.2
		C1.7,41.5-5.7,34.3-14.6,34.3L-14.6,34.3z M-14.6,64.8c-7.8,0-14.2-6.4-14.2-14.3c0-7.8,6.4-14.2,14.2-14.2
		c7.9,0,14.3,6.4,14.3,14.2C-0.2,58.3-6.7,64.8-14.6,64.8L-14.6,64.8z"/>
	<path class="st0" d="M-14.6,40C-20.3,40-25,44.7-25,50.4c0,5.8,4.7,10.5,10.4,10.5c2.3,0,4.7-0.8,6.5-2.1c0.4-0.3,0.5-0.9,0.2-1.3
		c-0.3-0.4-0.9-0.5-1.3-0.2c-1.5,1.1-3.4,1.8-5.3,1.8c-4.7,0-8.5-3.9-8.5-8.7c0-4.7,3.8-8.5,8.5-8.5c4.8,0,8.6,3.8,8.6,8.5v0.9
		c0,1-0.8,1.9-1.9,1.9c-1,0-1.9-0.8-1.9-1.9c0-0.5,0-4.2,0-4.7s-0.4-0.9-0.9-0.9s-0.9,0.4-0.9,0.9v0.1c-0.9-0.7-1.9-1-3-1
		c-2.6,0-4.7,2.1-4.7,4.7s2.1,4.7,4.7,4.7c1.4,0,2.7-0.6,3.6-1.6c0.7,1,1.8,1.6,3.1,1.6c2.1,0,3.8-1.7,3.8-3.8v-0.9
		C-4,44.7-8.8,40-14.6,40L-14.6,40z M-14.6,53.3c-1.6,0-2.8-1.3-2.8-2.9c0-1.6,1.3-2.9,2.8-2.9c1.6,0,3,1.3,3,2.9
		S-13,53.3-14.6,53.3L-14.6,53.3z"/>
</g>
</svg>
