<?xml version="1.0" encoding="utf-8"?>
<!-- Generator: Adobe Illustrator 19.0.0, SVG Export Plug-In . SVG Version: 6.00 Build 0)  -->
<svg version="1.1" id="Layer_1" xmlns="http://www.w3.org/2000/svg" xmlns:xlink="http://www.w3.org/1999/xlink" x="0px" y="0px"
	 viewBox="-32 33 35 35" style="enable-background:new -32 33 35 35;" xml:space="preserve">
<style type="text/css">
	.st0{fill:#FFFFFF;}
</style>
<path class="st0" d="M-7.8,49.9c-1.9,0-3.5,1.6-3.5,3.5S-9.8,57-7.8,57s3.5-1.6,3.5-3.5S-5.9,49.9-7.8,49.9z M-7.8,54.6
	c-0.6,0-1.2-0.5-1.2-1.2c0-0.6,0.5-1.2,1.2-1.2c0.6,0,1.2,0.5,1.2,1.2C-6.6,54.1-7.2,54.6-7.8,54.6z M-7.8,45.2
	c-4.5,0-8.1,3.6-8.1,8.1v0.2c0,2.2,1.3,4.8,3.7,7.7c1.8,2,3.5,3.5,3.6,3.5l0.7,0.6l0.7-0.6c0.1-0.1,1.8-1.5,3.6-3.5
	c2.5-2.9,3.7-5.4,3.7-7.7v-0.2C0.3,48.9-3.3,45.2-7.8,45.2z M-2.1,53.5c0,3-3.6,6.9-5.7,8.8c-0.6-0.6-1.6-1.5-2.6-2.6
	c-2.1-2.4-3.2-4.5-3.2-6.1v-0.2c0-3.2,2.6-5.7,5.7-5.7c3.2,0,5.7,2.6,5.7,5.7V53.5L-2.1,53.5z M-12.9,65.4l-10.4,0
	c-1.9,0-3.5-1.6-3.5-3.5V48.9l-0.5,0.5c-0.5,0.4-1.2,0.4-1.7-0.1l0,0c-0.4-0.5-0.4-1.2,0.1-1.7l13.5-11.7c0.4-0.3,0.9-0.3,1.3,0
	l8.3,7.2c-0.7-0.1-1.3-0.2-2-0.2c-0.5,0-0.9,0-1.4,0.1c-0.1,0-0.3,0-0.4-0.1l-4.8-4.1c-0.2-0.2-0.5-0.2-0.7,0l-9.4,8.2v15
	c0,0.6,0.5,1.2,1.2,1.2h9.3c0.2,0,0.3,0.1,0.5,0.2c0.4,0.4,0.7,0.8,1,1.1C-12.1,64.7-12.4,65.4-12.9,65.4z"/>
</svg>
