<?xml version="1.0" encoding="utf-8"?>
<!-- Generator: Adobe Illustrator 19.0.0, SVG Export Plug-In . SVG Version: 6.00 Build 0)  -->
<svg version="1.1" id="Layer_1" xmlns="http://www.w3.org/2000/svg" xmlns:xlink="http://www.w3.org/1999/xlink" x="0px" y="0px"
	 viewBox="-32 33 35 35" style="enable-background:new -32 33 35 35;" xml:space="preserve">
<style type="text/css">
	.st0{fill:#FFFFFF;}
</style>
<g>
	<path class="st0" d="M-14.5,33.9c-9,0-16.3,7.3-16.3,16.3c0,3.5,1.4,6.7,2,7.9c0.3,0.6,1,0.8,1.5,0.5c0.6-0.3,0.8-1,0.5-1.5
		c-0.5-1-1.8-3.8-1.8-6.8c0-7.7,6.3-14,14-14c7.7,0,14,6.3,14,14c0,7.7-6.3,14-14,14c-3,0-5.4-1-6.3-1.5c-0.3-0.1-0.6-0.2-0.9-0.1
		l-7.1,2.3c-0.6,0.2-0.9,0.8-0.7,1.4c0.2,0.5,0.6,0.8,1.1,0.8c0.1,0,0.2,0,0.3-0.1l6.7-2.1c1.4,0.7,3.9,1.5,6.9,1.5
		c9,0,16.3-7.3,16.3-16.3C1.8,41.2-5.5,33.9-14.5,33.9L-14.5,33.9z M-14.5,33.9"/>
	<path class="st0" d="M-17.7,47.4c-0.5,0.4-0.6,1.1-0.2,1.6c0.4,0.5,1.1,0.6,1.6,0.2c0.3-0.3,1.3-1,1.1-2.2
		c-0.1-0.8-0.8-1.8-1.4-2.5c-0.9-1.1-1.6-1.7-2.2-1.9c-0.5-0.2-1.1-0.1-1.7,0.1c-1.2,0.5-2,1.2-2.4,2.2c-0.4,1-0.3,2,0.2,3.1
		c1.2,2.5,2.8,4.7,4.7,6.4c0,0,0,0,0,0c2,1.7,4.3,3.1,6.9,4c0.5,0.2,1,0.3,1.5,0.3c0.6,0,1.1-0.1,1.7-0.4c0.9-0.5,1.6-1.4,1.9-2.6
		c0.2-0.6,0.1-1.1-0.1-1.7c-0.2-0.6-1-1.2-2.1-2c-0.8-0.5-1.9-1.1-2.7-1.1c0,0,0,0,0,0c-1.3,0-1.9,1-2.1,1.4
		c-0.3,0.5-0.2,1.2,0.4,1.6c0.5,0.3,1.2,0.2,1.6-0.4c0.1-0.1,0.1-0.2,0.2-0.3c0.6,0.2,2.4,1.3,2.7,1.8c0,0,0,0.1,0,0.1
		c-0.1,0.4-0.3,0.9-0.8,1.2c-0.4,0.2-1,0.1-1.3,0c-2.3-0.8-4.4-2-6.1-3.5c0,0,0,0,0,0c-1.7-1.6-3.1-3.5-4.2-5.7
		c-0.2-0.3-0.3-0.8-0.1-1.3c0.2-0.5,0.7-0.8,1.1-0.9c0.1,0,0.1,0,0.1,0c0.5,0.3,1.8,1.9,2.1,2.5C-17.5,47.2-17.6,47.3-17.7,47.4
		L-17.7,47.4z M-17.7,47.4"/>
</g>
</svg>
